<?xml version="1.0" encoding="utf-8"?>
<!-- Generator: Adobe Illustrator 16.0.0, SVG Export Plug-In . SVG Version: 6.00 Build 0)  -->
<!DOCTYPE svg PUBLIC "-//W3C//DTD SVG 1.1//EN" "http://www.w3.org/Graphics/SVG/1.1/DTD/svg11.dtd">
<svg version="1.1" id="レイヤー_1" xmlns="http://www.w3.org/2000/svg" xmlns:xlink="http://www.w3.org/1999/xlink" x="0px"
	 y="0px" width="190px" height="170px" viewBox="0 0 190 170" enable-background="new 0 0 190 170" xml:space="preserve">
<g>
	<path fill="#4CC3CE" d="M190,160.01c0-5.43-1.42-10.01-6.56-10.01H6.55C1.21,150,0,154.58,0,160.01c0,5.62,1.21,9.99,6.55,9.99
		h176.89C188.58,170,190,165.63,190,160.01z"/>
	<path fill="#1991BA" d="M190,110.01c0-5.43-1.42-10.01-6.56-10.01H6.55C1.21,100,0,104.58,0,110.01c0,5.62,1.21,9.99,6.55,9.99
		h176.89C188.58,120,190,115.63,190,110.01z"/>
	<path fill="#FF656A" d="M190,60.01c0-5.43-1.42-10.01-6.56-10.01H6.55C1.21,50,0,54.58,0,60.01C0,65.63,1.21,70,6.55,70h176.89
		C188.58,70,190,65.63,190,60.01z"/>
	<path fill="#FFBF00" d="M190,10.01C190,4.58,188.58,0,183.44,0H6.55C1.21,0,0,4.58,0,10.01C0,15.63,1.21,20,6.55,20h176.89
		C188.58,20,190,15.63,190,10.01z"/>
</g>
</svg>
