<?xml version="1.0" encoding="utf-8"?>
<!-- Generator: Adobe Illustrator 16.0.0, SVG Export Plug-In . SVG Version: 6.00 Build 0)  -->
<!DOCTYPE svg PUBLIC "-//W3C//DTD SVG 1.1//EN" "http://www.w3.org/Graphics/SVG/1.1/DTD/svg11.dtd">
<svg version="1.1" id="レイヤー_1" xmlns="http://www.w3.org/2000/svg" xmlns:xlink="http://www.w3.org/1999/xlink" x="0px"
	 y="0px" width="450.088px" height="113.203px" viewBox="0 0 450.088 113.203" enable-background="new 0 0 450.088 113.203"
	 xml:space="preserve">
<g>
	<path fill="#222222" d="M349.904,0c-4.582,0-8.453,1.209-8.453,5.588v102.031c0,4.549,3.871,5.584,8.453,5.584
		c4.748,0,8.441-1.035,8.441-5.584V5.588C358.346,1.209,354.652,0,349.904,0z"/>
	<path fill="#222222" d="M220.877,0.012h-48.795c-4.381,0-5.584,3.703-5.584,8.086c0,4.545,1.203,8.084,5.584,8.084h15.949v91.438
		c0,4.549,3.871,5.584,8.453,5.584c4.748,0,8.441-1.035,8.441-5.584V16.182h15.951c4.547,0,5.584-3.539,5.584-8.084
		C226.461,3.715,225.424,0.012,220.877,0.012z"/>
	<path fill="#222222" d="M136.006,16.168c4.549,0,5.586-3.539,5.586-8.084c0-4.381-1.037-8.084-5.586-8.084H97.316
		c-4.379,0-6.587,2.203-6.587,6.584v99.346c0,4.553,2.208,6.588,6.587,6.588h38.689c4.549,0,5.586-3.535,5.586-8.088
		c0-4.377-1.037-8.086-5.586-8.086h-28.382V62.656h25.011c4.551,0,5.588-3.537,5.588-8.086c0-4.377-1.037-8.084-5.588-8.084h-25.011
		V16.168H136.006z"/>
	<path fill="#222222" d="M42.518,62.771c8.98-4.737,15.085-14.156,15.085-25.042v-9.436C57.603,12.629,44.97,0,29.303,0H6.588
		C2.039,0,0,2.203,0,6.584v101.035c0,4.549,3.87,5.584,8.452,5.584c4.749,0,8.442-1.035,8.442-5.584V66.031h8.785l16.699,43.81
		c1.62,4.251,5.606,3.839,9.888,2.208c4.437-1.691,7.519-3.974,5.899-8.225L42.518,62.771z M16.895,16.168h12.408
		c6.737,0,12.127,5.393,12.127,12.125v9.436c0,6.742-5.39,12.129-12.127,12.129H16.895V16.168z"/>
	<path fill="#222222" d="M293.887,62.771c8.98-4.737,15.085-14.156,15.085-25.042v-9.436c0-15.664-12.633-28.293-28.3-28.293
		h-22.715c-4.549,0-6.588,2.203-6.588,6.584v101.035c0,4.549,3.87,5.584,8.452,5.584c4.749,0,8.442-1.035,8.442-5.584V66.031h8.785
		l16.699,43.81c1.619,4.251,5.605,3.839,9.887,2.208c4.438-1.691,7.52-3.974,5.899-8.225L293.887,62.771z M268.264,16.168h12.408
		c6.737,0,12.127,5.393,12.127,12.125v9.436c0,6.742-5.39,12.129-12.127,12.129h-12.408V16.168z"/>
	<path fill="#222222" d="M421.789,0h-22.715c-4.549,0-6.588,2.203-6.588,6.584v101.035c0,4.549,3.869,5.584,8.451,5.584
		c4.75,0,8.443-1.035,8.443-5.584V66.031h12.408c15.666,0,28.299-12.639,28.299-28.303v-9.436C450.088,12.629,437.455,0,421.789,0z
		 M433.916,37.729c0,6.742-5.391,12.129-12.127,12.129h-12.408V16.168h12.408c6.736,0,12.127,5.393,12.127,12.125V37.729z"/>
</g>
</svg>
